# xmcd
#
# Track frame offsets:
#	150
#	10897
#	26288
#	43584
#	55410
#	73666
#	87894
#	103759
#	121076
#	141314
#	155646
#	172793
#	186551
#	198900
#	212460
#
# Disc length: 2999 seconds
# Revision: 0
# Processed by: cddbd v1.5.2PL0 Copyright (c) Steve Scherf et al.
# Submitted via: dBpowerAMP V12.0
#
DISCID=ca0bb50f
DTITLE=Compost Mountain Boys - High On A Mountain
DYEAR=2012
DGENRE=Country
TTITLE0=Take Me in Chains
TTITLE1=Down the Lonesome Road
TTITLE2=High On a Mountain
TTITLE3=Dooley
TTITLE4=Ook-Pic
TTITLE5=Who Will Sing for Me
TTITLE6=Ginseng Sullivan
TTITLE7=Blackbirds and Crows
TTITLE8=Memories of My Childhood
TTITLE9=When We're Gone Long Gone
TTITLE10=Put My Little Shoes Away
TTITLE11=Old Man At the Mill
TTITLE12=Old Kentucky Hills
TTITLE13=Midnight Blues
TTITLE14=The Fox
EXTD=
EXTT0=
EXTT1=
EXTT2=
EXTT3=
EXTT4=
EXTT5=
EXTT6=
EXTT7=
EXTT8=
EXTT9=
EXTT10=
EXTT11=
EXTT12=
EXTT13=
EXTT14=
PLAYORDER=
